<svg width="151" height="126" viewBox="0 0 151 126" fill="none" xmlns="http://www.w3.org/2000/svg">
<path d="M73.5691 31.7754L55.463 45.1906C54.9524 45.5684 54.2312 45.4615 53.8517 44.9508L31.9019 15.3221L51.8798 0.521484L73.8141 30.1278C74.2022 30.6505 74.0918 31.3872 73.5691 31.7754Z" fill="#129AC6"/>
<path d="M18.0706 73.3512C25.2729 73.3512 31.1115 67.5126 31.1115 60.3104C31.1115 53.1081 25.2729 47.2695 18.0706 47.2695C10.8684 47.2695 5.02979 53.1081 5.02979 60.3104C5.02979 67.5126 10.8684 73.3512 18.0706 73.3512Z" fill="#513E99"/>
<path d="M144.572 86.3984C132.77 86.3984 123.202 95.9664 123.202 107.769H144.572V86.3984Z" fill="#4FBF9F"/>
<path d="M72.6961 93.3477C60.1763 93.3477 50.0269 103.497 50.0269 116.017H95.3671C95.3654 103.497 85.216 93.3477 72.6961 93.3477Z" fill="#EB8A23"/>
<path d="M9.91895 92.9772L34.2185 86.6543L27.9836 111.119L9.91895 92.9772Z" fill="#AB3593"/>
<path d="M124.811 35.2744C122.941 41.4351 117.22 45.9207 110.449 45.9207C103.677 45.9207 97.9564 41.4351 96.0863 35.2744H78.7617C80.8924 50.8772 94.2627 62.9002 110.449 62.9002C126.636 62.9002 140.007 50.8755 142.136 35.2744H124.811Z" fill="#F16061"/>
<path d="M78.7634 46.8262C75.6701 46.8262 73.1548 49.3433 73.1548 52.4348V61.3939H84.3738V52.4348C84.3721 49.3433 81.855 46.8262 78.7634 46.8262ZM82.0845 59.1062H75.4424V52.4348C75.4424 50.6044 76.933 49.1138 78.7634 49.1138C80.5939 49.1138 82.0845 50.6044 82.0845 52.4348V59.1062Z" fill="white"/>
<path d="M134.75 66.726C134.75 66.4276 134.643 66.1343 134.424 65.9152L121.054 52.619V42.9751H112.662V50.0708H108.565V42.9751H99.7472V50.0708H96.4831V34.4594H95.8517L78.7617 15.332L61.6735 34.4594H61.0421V50.0691H57.778V42.9733H48.9605V50.0691H44.8631V42.9733H36.4717V52.6172L23.0996 65.9134C22.8805 66.1325 22.7735 66.4258 22.7735 66.7243H22.7632V97.5503C22.7632 98.1817 23.2756 98.6941 23.907 98.6941H50.0232H51.167H61.0387H68.2845H68.6848H88.8335H89.2338H96.4796H106.351H107.495H133.61C134.241 98.6941 134.753 98.1817 134.753 97.5503V66.726H134.75ZM130.86 65.5994L109.101 65.7357L119.92 54.7203L130.86 65.5994ZM78.7635 18.7669L92.7842 34.4611H64.7427L78.7635 18.7669ZM37.6069 54.7186L48.4257 65.734L26.6656 65.5994L37.6069 54.7186ZM34.2186 96.3685V89.6972C34.2186 87.8667 35.7092 86.3761 37.5396 86.3761C39.37 86.3761 40.8606 87.8667 40.8606 89.6972V96.3685H34.2186ZM43.1483 96.4065V89.6972C43.1483 86.6039 40.6312 84.0885 37.5396 84.0885C34.4463 84.0885 31.9309 86.6056 31.9309 89.6972V96.4065H25.0543V67.8767L50.0267 68.0337V96.4065H43.1483ZM52.3143 96.4065V66.4293L38.761 52.6276V45.2627H42.5755V52.3585H51.2498V45.2627H55.4904V52.3585H61.0438V96.4048H52.3143V96.4065ZM70.9776 96.4065V81.9199C70.9776 77.6276 74.4694 74.1341 78.7635 74.1341C83.0575 74.1341 86.5493 77.6276 86.5493 81.9199V96.4048H70.9776V96.4065ZM89.2372 96.4065H88.837V81.9199C88.837 76.3647 84.3186 71.8464 78.7635 71.8464C73.2083 71.8464 68.69 76.3665 68.69 81.9199V96.4048H68.2897H63.3315V36.7471H94.1972V96.4048H89.2372V96.4065ZM105.213 96.4065H96.4848V52.3585H102.038V45.2627H106.279V52.3585H114.953V45.2627H118.768V52.6276L105.214 66.4293V96.4065H105.213ZM116.666 96.3685V89.6972C116.666 87.8667 118.157 86.3761 119.987 86.3761C121.818 86.3761 123.308 87.8667 123.308 89.6972V96.3685H116.666ZM125.596 96.4065V89.6972C125.596 86.6039 123.079 84.0885 119.987 84.0885C116.894 84.0885 114.379 86.6056 114.379 89.6972V96.4065H107.502V68.0337L132.471 67.8767V96.4048H125.596V96.4065Z" fill="white"/>
<path d="M134.719 67.8789H132.511V116.906H134.719V67.8789Z" fill="white"/>
<path d="M63.3088 59.5527H61.1006V108.581H63.3088V59.5527Z" fill="white"/>
<path d="M43.1018 94.5469H40.8936V125.157H43.1018V94.5469Z" fill="white"/>
<path d="M38.6438 34.5527H36.4355V54.1097H38.6438V34.5527Z" fill="white"/>
<path d="M108.604 28.4473H106.396V49.8485H108.604V28.4473Z" fill="white"/>
<path d="M107.512 82.0234H105.304V103.423H107.512V82.0234Z" fill="white"/>
<path d="M31.6219 65.6309H13.9058V67.8391H31.6219V65.6309Z" fill="white"/>
<path d="M150.539 65.7012H125.455V67.9094H150.539V65.7012Z" fill="white"/>
<path d="M140.983 96.5264H0.539062V98.7346H140.983V96.5264Z" fill="white"/>
<path d="M71.6791 7.24315L70.0278 8.71191L88.357 29.3191L90.0083 27.8503L71.6791 7.24315Z" fill="white"/>
</svg>
