<svg xmlns="http://www.w3.org/2000/svg" viewBox="0 0 512 512">
  <defs>
    <text xml:lang="en-US" id="a">This wallet has been signed as stolen.</text>
  </defs>
  <rect width="100%" height="100%" />
  <switch fill="#fff" stroke="#000" font-family="Helvetica" font-size="18" font-weight="bold">
    <g systemLanguage="en">
      <use x="20" y="255" href="#a" />
      <text xml:lang="en" x="20" y="50">English (US)</text>
    </g>
    <g systemLanguage="af">
      <text xml:lang="af" x="20" y="255">Hierdie beursie is as gesteel onderteken.</text>
      <use x="20" y="275" href="#a" />
      <text xml:lang="af" x="20" y="50">Afrikaans</text>
      --&gt;
    </g>
    <g systemLanguage="sq">
      <title>Kjo portofol është nënshkruar si e vjedhur.</title>
      <desc>Kjo portofol është nënshkruar si e vjedhur.</desc>
      <text xml:lang="sq" x="20" y="255">Kjo portofol është nënshkruar si e vjedhur.</text>
      <use x="20" y="275" href="#a" />
      <text xml:lang="sq" x="20" y="50">Albanian</text>
      --&gt;
    </g>
    <g systemLanguage="ar">
      <text xml:lang="ar" x="20" y="255">وقد تم توقيع هذه المحفظة كما سرقت.</text>
      <use x="20" y="275" href="#a" />
      <text xml:lang="ar" x="20" y="50">Arabic</text>
      --&gt;
    </g>
    <g systemLanguage="hy">
      <text xml:lang="hy" x="20" y="255">Այս դրամապանակը ստորագրվել է որպես գողացված:</text>
      <use x="20" y="275" href="#a" />
      <text xml:lang="hy" x="20" y="50">Armenian</text>
      --&gt;
    </g>
    <g systemLanguage="az">
      <text xml:lang="az" x="20" y="255">Bu cüzdan oğurlanmış kimi imzalanmışdır.</text>
      <use x="20" y="275" href="#a" />
      <text xml:lang="az" x="20" y="50">Azerbaijani</text>
      --&gt;
    </g>
    <g systemLanguage="eu">
      <text xml:lang="eu" x="20" y="255">Zorro hau lapurtu bezala sinatu da.</text>
      <use x="20" y="275" href="#a" />
      <text xml:lang="eu" x="20" y="50">Basque</text>
      --&gt;
    </g>
    <g systemLanguage="bg">
      <text xml:lang="bg" x="20" y="255">Този портфейл е подписан като откраднат.</text>
      <use x="20" y="275" href="#a" />
      <text xml:lang="bg" x="20" y="50">Bulgarian</text>
      --&gt;
    </g>
    <g systemLanguage="be">
      <text xml:lang="be" x="20" y="255">Гэты кашалёк быў падпісаны як скрадзены.</text>
      <use x="20" y="275" href="#a" />
      <text xml:lang="be" x="20" y="50">Belarusian</text>
      --&gt;
    </g>
    <g systemLanguage="bn">
      <text xml:lang="bn" x="20" y="255">এই মানিব্যাগটি চুরি হিসাবে স্বাক্ষরিত হয়েছে।</text>
      <use x="20" y="275" href="#a" />
      <text xml:lang="bn" x="20" y="50">Bengali</text>
      --&gt;
    </g>
    <g systemLanguage="bs">
      <text xml:lang="bs" x="20" y="255">Ovaj novčanik je potpisan kao ukraden.</text>
      <use x="20" y="275" href="#a" />
      <text xml:lang="bs" x="20" y="50">Bosnian</text>
      --&gt;
    </g>
    <g systemLanguage="my">
      <text xml:lang="my" x="20" y="255">ဒီပိုက်ဆံအိတ်ခိုးယူအဖြစ်လက်မှတ်ရေးထိုးခဲ့သည်။</text>
      <use x="20" y="275" href="#a" />
      <text xml:lang="my" x="20" y="50">Burmese</text>
      --&gt;
    </g>
    <g systemLanguage="ca">
      <text xml:lang="ca" x="20" y="255">Aquesta cartera ha estat signada com a robada.</text>
      <use x="20" y="275" href="#a" />
      <text xml:lang="ca" x="20" y="50">Catalan</text>
      --&gt;
    </g>
    <g systemLanguage="zh">
      <text xml:lang="zh" x="20" y="255">这个钱包已被盗。</text>
      <use x="20" y="275" href="#a" />
      <text xml:lang="zh" x="20" y="50">Chinese</text>
      --&gt;
    </g>
    <g systemLanguage="zh">
      <text xml:lang="zh-HK" x="20" y="255">這個錢包已被盜。</text>
      <use x="20" y="275" href="#a" />
      <text xml:lang="zh" x="20" y="50">Chinese (HK)</text>
      --&gt;
    </g>
    <g systemLanguage="zh">
      <text xml:lang="zh-CN" x="20" y="255">这个钱包已被盗。</text>
      <use x="20" y="275" href="#a" />
      <text xml:lang="zh" x="20" y="50">Chinese (CN)</text>
      --&gt;
    </g>
    <g systemLanguage="zh">
      <text xml:lang="zh-TW" x="20" y="255">這個錢包已被盜。</text>
      <use x="20" y="275" href="#a" />
      <text xml:lang="zh" x="20" y="50">Chinese (TW)</text>
      --&gt;
    </g>
    <g systemLanguage="co">
      <text xml:lang="co" x="20" y="255">Questa billetera hè stata firmata cum&apos;è arrubata.</text>
      <use x="20" y="275" href="#a" />
      <text xml:lang="co" x="20" y="50">Corsican</text>
      --&gt;
    </g>
    <g systemLanguage="hr">
      <text xml:lang="hr" x="20" y="255">Ovaj je novčanik potpisan kao ukraden.</text>
      <use x="20" y="275" href="#a" />
      <text xml:lang="hr" x="20" y="50">Croatian</text>
      --&gt;
    </g>
    <g systemLanguage="cs">
      <text xml:lang="cs" x="20" y="255">Tato peněženka byla podepsána jako ukradená.</text>
      <use x="20" y="275" href="#a" />
      <text xml:lang="cs" x="20" y="50">Czech</text>
      --&gt;
    </g>
    <g systemLanguage="da">
      <text xml:lang="da" x="20" y="255">Denne tegnebog er blevet underskrevet som stjålet.</text>
      <use x="20" y="275" href="#a" />
      <text xml:lang="da" x="20" y="50">Danish</text>
      --&gt;
    </g>
    <g systemLanguage="nl">
      <text xml:lang="nl" x="20" y="255">Deze portemonnee is ondertekend als gestolen.</text>
      <use x="20" y="275" href="#a" />
      <text xml:lang="nl" x="20" y="50">Dutch</text>
      --&gt;
    </g>
    <g systemLanguage="en">
      <text xml:lang="en" x="20" y="255">This wallet has been signed as stolen.</text>
      <use x="20" y="275" href="#a" />
      <text xml:lang="en" x="20" y="50">English</text>
      --&gt;
    </g>
    <g systemLanguage="en">
      <text xml:lang="en-CA" x="20" y="255">This wallet has been signed as stolen.</text>
      <use x="20" y="275" href="#a" />
      <text xml:lang="en" x="20" y="50">English (CA)</text>
      --&gt;
    </g>
    <g systemLanguage="en">
      <text xml:lang="en-GB" x="20" y="255">This wallet has been signed as stolen.</text>
      <use x="20" y="275" href="#a" />
      <text xml:lang="en" x="20" y="50">English (GB)</text>
      --&gt;
    </g>
    <g systemLanguage="en">
      <text xml:lang="en-US" x="20" y="255">This wallet has been signed as stolen.</text>
      <use x="20" y="275" href="#a" />
      <text xml:lang="en" x="20" y="50">English (US)</text>
      --&gt;
    </g>
    <g systemLanguage="eo">
      <text xml:lang="eo" x="20" y="255">Ĉi tiu monujo estis subskribita kiel ŝtelita.</text>
      <use x="20" y="275" href="#a" />
      <text xml:lang="eo" x="20" y="50">Esperanto</text>
      --&gt;
    </g>
    <g systemLanguage="et">
      <text xml:lang="et" x="20" y="255">See rahakott on allkirjastatud varastatud.</text>
      <use x="20" y="275" href="#a" />
      <text xml:lang="et" x="20" y="50">Estonian</text>
      --&gt;
    </g>
    <g systemLanguage="fa">
      <text xml:lang="fa" x="20" y="255">این کیف پول به عنوان دزدیده شده امضا شده است.</text>
      <use x="20" y="275" href="#a" />
      <text xml:lang="fa" x="20" y="50">Farsi</text>
      --&gt;
    </g>
    <g systemLanguage="fi">
      <text xml:lang="fi" x="20" y="255">Tämä lompakko on allekirjoitettu varastettuna.</text>
      <use x="20" y="275" href="#a" />
      <text xml:lang="fi" x="20" y="50">Finnish</text>
      --&gt;
    </g>
    <g systemLanguage="fr">
      <text xml:lang="fr" x="20" y="255">Ce portefeuille a été signé comme volé.</text>
      <use x="20" y="275" href="#a" />
      <text xml:lang="fr" x="20" y="50">French</text>
      --&gt;
    </g>
    <g systemLanguage="fr">
      <text xml:lang="fr-FR" x="20" y="255">Ce portefeuille a été signé comme volé.</text>
      <use x="20" y="275" href="#a" />
      <text xml:lang="fr" x="20" y="50">French (FR)</text>
      --&gt;
    </g>
    <g systemLanguage="fy">
      <text xml:lang="fy" x="20" y="255">Dizze slaget is tekene as stellen.</text>
      <use x="20" y="275" href="#a" />
      <text xml:lang="fy" x="20" y="50">Frisian</text>
      --&gt;
    </g>
    <g systemLanguage="gd">
      <text xml:lang="gd" x="20" y="255">Chaidh an wallet seo a shoidhnigeadh mar a chaidh a ghoid.</text>
      <use x="20" y="275" href="#a" />
      <text xml:lang="gd" x="20" y="50">Gaelic</text>
      --&gt;
    </g>
    <g systemLanguage="gl">
      <text xml:lang="gl" x="20" y="255">Esta carteira foi asinada como roubada.</text>
      <use x="20" y="275" href="#a" />
      <text xml:lang="gl" x="20" y="50">Galacian</text>
      --&gt;
    </g>
    <g systemLanguage="ka">
      <text xml:lang="ka" x="20" y="255">ეს საფულე გაფორმდა როგორც მოპარული.</text>
      <use x="20" y="275" href="#a" />
      <text xml:lang="ka" x="20" y="50">Georgian</text>
      --&gt;
    </g>
    <g systemLanguage="de">
      <text xml:lang="de" x="20" y="255">Diese Brieftasche wurde als gestohlen unterschrieben.</text>
      <use x="20" y="275" href="#a" />
      <text xml:lang="de" x="20" y="50">German</text>
      --&gt;
    </g>
    <g systemLanguage="de">
      <text xml:lang="de-DE" x="20" y="255">Diese Brieftasche wurde als gestohlen unterschrieben.</text>
      <use x="20" y="275" href="#a" />
      <text xml:lang="de" x="20" y="50">German (DE)</text>
      --&gt;
    </g>
    <g systemLanguage="el">
      <text xml:lang="el" x="20" y="255">Αυτό το πορτοφόλι έχει υπογραφεί ως κλεμμένο.</text>
      <use x="20" y="275" href="#a" />
      <text xml:lang="el" x="20" y="50">Greek</text>
      --&gt;
    </g>
    <g systemLanguage="gu">
      <text xml:lang="gu" x="20" y="255">આ વ let લેટ પર ચોરીની જેમ હસ્તાક્ષર કરવામાં આવ્યા છે.</text>
      <use x="20" y="275" href="#a" />
      <text xml:lang="gu" x="20" y="50">Gujurati</text>
      --&gt;
    </g>
    <g systemLanguage="ht">
      <text xml:lang="ht" x="20" y="255">Sa a te bous sa a te siyen kòm yo vòlè li.</text>
      <use x="20" y="275" href="#a" />
      <text xml:lang="ht" x="20" y="50">Haitian</text>
      --&gt;
    </g>
    <g systemLanguage="he">
      <text xml:lang="he" x="20" y="255">הארנק הזה נחתם כגנוב.</text>
      <use x="20" y="275" href="#a" />
      <text xml:lang="he" x="20" y="50">Hebrew</text>
      --&gt;
    </g>
    <g systemLanguage="hi">
      <text xml:lang="hi" x="20" y="255">इस बटुए को चोरी के रूप में हस्ताक्षरित किया गया है।</text>
      <use x="20" y="275" href="#a" />
      <text xml:lang="hi" x="20" y="50">Hindi</text>
      --&gt;
    </g>
    <g systemLanguage="hu">
      <text xml:lang="hu" x="20" y="255">Ezt a pénztárcát ellopták.</text>
      <use x="20" y="275" href="#a" />
      <text xml:lang="hu" x="20" y="50">Hungarian</text>
      --&gt;
    </g>
    <g systemLanguage="is">
      <text xml:lang="is" x="20" y="255">Þetta veski hefur verið undirritað sem stolið.</text>
      <use x="20" y="275" href="#a" />
      <text xml:lang="is" x="20" y="50">Icelandic</text>
      --&gt;
    </g>
    <g systemLanguage="id">
      <text xml:lang="id" x="20" y="255">Dompet ini telah ditandatangani sebagai dicuri.</text>
      <use x="20" y="275" href="#a" />
      <text xml:lang="id" x="20" y="50">Indonesian</text>
      --&gt;
    </g>
    <g systemLanguage="ga">
      <text xml:lang="ga" x="20" y="255">Tá an sparán seo sínithe mar goidte.</text>
      <use x="20" y="275" href="#a" />
      <text xml:lang="ga" x="20" y="50">Irish</text>
      --&gt;
    </g>
    <g systemLanguage="it">
      <text xml:lang="it" x="20" y="255">Questo portafoglio è stato firmato come rubato.</text>
      <use x="20" y="275" href="#a" />
      <text xml:lang="it" x="20" y="50">Italian</text>
      --&gt;
    </g>
    <g systemLanguage="ja">
      <text xml:lang="ja" x="20" y="255">このウォレットは盗まれたものとして署名されています。</text>
      <use x="20" y="275" href="#a" />
      <text xml:lang="ja" x="20" y="50">Japanese</text>
      --&gt;
    </g>
    <g systemLanguage="kn">
      <text xml:lang="kn" x="20" y="255">ಈ ಕೈಚೀಲವನ್ನು ಕಳವು ಮಾಡಿದಂತೆ ಸಹಿ ಮಾಡಲಾಗಿದೆ.</text>
      <use x="20" y="275" href="#a" />
      <text xml:lang="kn" x="20" y="50">Kannada</text>
      --&gt;
    </g>
    <g systemLanguage="kk">
      <text xml:lang="kk" x="20" y="255">Бұл әмиян ұрланған деп қол қойылды.</text>
      <use x="20" y="275" href="#a" />
      <text xml:lang="kk" x="20" y="50">Kazakh</text>
      --&gt;
    </g>
    <g systemLanguage="km">
      <text xml:lang="km" x="20" y="255">កាបូបនេះត្រូវបានចុះហត្ថលេខាថាត្រូវបានគេលួច។</text>
      <use x="20" y="275" href="#a" />
      <text xml:lang="km" x="20" y="50">Khmer</text>
      --&gt;
    </g>
    <g systemLanguage="ky">
      <text xml:lang="ky" x="20" y="255">Бул капчыкты уурдап кетишкен.</text>
      <use x="20" y="275" href="#a" />
      <text xml:lang="ky" x="20" y="50">Kirghiz</text>
      --&gt;
    </g>
    <g systemLanguage="ko">
      <text xml:lang="ko" x="20" y="255">이 지갑은 도난당한 것으로 서명되었습니다.</text>
      <use x="20" y="275" href="#a" />
      <text xml:lang="ko" x="20" y="50">Korean</text>
      --&gt;
    </g>
    <g systemLanguage="ko">
      <text xml:lang="ko-KR" x="20" y="255">이 지갑은 도난당한 것으로 서명되었습니다.</text>
      <use x="20" y="275" href="#a" />
      <text xml:lang="ko" x="20" y="50">Korean (KR)</text>
      --&gt;
    </g>
    <g systemLanguage="la">
      <text xml:lang="la" x="20" y="255">Hoc peram est signati ut furto.</text>
      <use x="20" y="275" href="#a" />
      <text xml:lang="la" x="20" y="50">Latin</text>
      --&gt;
    </g>
    <g systemLanguage="lv">
      <text xml:lang="lv" x="20" y="255">Šis maciņš ir parakstīts kā nozagts.</text>
      <use x="20" y="275" href="#a" />
      <text xml:lang="lv" x="20" y="50">Latvian</text>
      --&gt;
    </g>
    <g systemLanguage="lt">
      <text xml:lang="lt" x="20" y="255">Ši piniginė buvo pasirašyta kaip pavogta.</text>
      <use x="20" y="275" href="#a" />
      <text xml:lang="lt" x="20" y="50">Lithuanian</text>
      --&gt;
    </g>
    <g systemLanguage="lb">
      <text xml:lang="lb" x="20" y="255">Dëse Portemonnaie gouf ënnerschriwwen wéi geklaut.</text>
      <use x="20" y="275" href="#a" />
      <text xml:lang="lb" x="20" y="50">Luxembourgish</text>
      --&gt;
    </g>
    <g systemLanguage="mk">
      <text xml:lang="mk" x="20" y="255">Овој паричник е потпишан како украден.</text>
      <use x="20" y="275" href="#a" />
      <text xml:lang="mk" x="20" y="50">Fyro Macedonian</text>
      --&gt;
    </g>
    <g systemLanguage="ms">
      <text xml:lang="ms" x="20" y="255">Dompet ini telah ditandatangani sebagai dicuri.</text>
      <use x="20" y="275" href="#a" />
      <text xml:lang="ms" x="20" y="50">Malay</text>
      --&gt;
    </g>
    <g systemLanguage="ml">
      <text xml:lang="ml" x="20" y="255">ഈ വാലറ്റ് മോഷ്ടിച്ചതായി ഒപ്പിട്ടു.</text>
      <use x="20" y="275" href="#a" />
      <text xml:lang="ml" x="20" y="50">Malayalam</text>
      --&gt;
    </g>
    <g systemLanguage="mt">
      <text xml:lang="mt" x="20" y="255">Din il-kartiera ġiet iffirmata bħala misruqa.</text>
      <use x="20" y="275" href="#a" />
      <text xml:lang="mt" x="20" y="50">Maltese</text>
      --&gt;
    </g>
    <g systemLanguage="mi">
      <text xml:lang="mi" x="20" y="255">Kua hainatia tenei putea ki te tahaetia.</text>
      <use x="20" y="275" href="#a" />
      <text xml:lang="mi" x="20" y="50">Maori</text>
      --&gt;
    </g>
    <g systemLanguage="mr">
      <text xml:lang="mr" x="20" y="255">या पाकीटात चोरी म्हणून स्वाक्षरी केली गेली आहे.</text>
      <use x="20" y="275" href="#a" />
      <text xml:lang="mr" x="20" y="50">Marathi</text>
      --&gt;
    </g>
    <g systemLanguage="mo">
      <text xml:lang="mo" x="20" y="255">Acest portofel a fost semnat ca fiind furat.</text>
      <use x="20" y="275" href="#a" />
      <text xml:lang="mo" x="20" y="50">Moldavian</text>
      --&gt;
    </g>
    <g systemLanguage="ne">
      <text xml:lang="ne" x="20" y="255">यो वालेट चोरीको रूपमा हस्ताक्षर गरिएको छ।</text>
      <use x="20" y="275" href="#a" />
      <text xml:lang="ne" x="20" y="50">Nepali</text>
      --&gt;
    </g>
    <g systemLanguage="no">
      <text xml:lang="no" x="20" y="255">Denne lommeboken er signert som stjålet.</text>
      <use x="20" y="275" href="#a" />
      <text xml:lang="no" x="20" y="50">Norwegian</text>
      --&gt;
    </g>
    <g systemLanguage="nb">
      <text xml:lang="nb" x="20" y="255">Denne lommeboken er signert som stjålet.</text>
      <use x="20" y="275" href="#a" />
      <text xml:lang="nb" x="20" y="50">Norwegian</text>
      --&gt;
    </g>
    <g systemLanguage="or">
      <text xml:lang="or" x="20" y="255">ଏହି ୱାଲେଟ୍ ଚୋରି ହୋଇଥିବା ପରି ଦସ୍ତଖତ ହୋଇଛି |</text>
      <use x="20" y="275" href="#a" />
      <text xml:lang="or" x="20" y="50">Oriya</text>
      --&gt;
    </g>
    <g systemLanguage="fa">
      <text xml:lang="fa" x="20" y="255">این کیف پول به عنوان دزدیده شده امضا شده است.</text>
      <use x="20" y="275" href="#a" />
      <text xml:lang="fa" x="20" y="50">Persian</text>
      --&gt;
    </g>
    <g systemLanguage="pl">
      <text xml:lang="pl" x="20" y="255">Ten portfel został podpisany jako skradziony.</text>
      <use x="20" y="275" href="#a" />
      <text xml:lang="pl" x="20" y="50">Polish</text>
      --&gt;
    </g>
    <g systemLanguage="pt">
      <text xml:lang="pt" x="20" y="255">Esta carteira foi assinada como roubada.</text>
      <use x="20" y="275" href="#a" />
      <text xml:lang="pt" x="20" y="50">Portuguese</text>
      --&gt;
    </g>
    <g systemLanguage="pt">
      <text xml:lang="pt-BR" x="20" y="255">Esta carteira foi assinada como roubada.</text>
      <use x="20" y="275" href="#a" />
      <text xml:lang="pt" x="20" y="50">Portuguese (BR)</text>
      --&gt;
    </g>
    <g systemLanguage="pa">
      <text xml:lang="pa" x="20" y="255">ਇਹ ਬਟੂਆ ਚੋਰੀ &apos;ਤੇ ਦਸਤਖਤ ਕੀਤੇ ਗਏ ਹਨ.</text>
      <use x="20" y="275" href="#a" />
      <text xml:lang="pa" x="20" y="50">Punjabi</text>
      --&gt;
    </g>
    <g systemLanguage="ro">
      <text xml:lang="ro" x="20" y="255">Acest portofel a fost semnat ca fiind furat.</text>
      <use x="20" y="275" href="#a" />
      <text xml:lang="ro" x="20" y="50">Romanian</text>
      --&gt;
    </g>
    <g systemLanguage="ru">
      <text xml:lang="ru" x="20" y="255">Этот кошелек был подписан как украденный.</text>
      <use x="20" y="275" href="#a" />
      <text xml:lang="ru" x="20" y="50">Russian</text>
      --&gt;
    </g>
    <g systemLanguage="gd">
      <text xml:lang="gd" x="20" y="255">Chaidh an wallet seo a shoidhnigeadh mar a chaidh a ghoid.</text>
      <use x="20" y="275" href="#a" />
      <text xml:lang="gd" x="20" y="50">Scots Gaelic</text>
      --&gt;
    </g>
    <g systemLanguage="sd">
      <text xml:lang="sd" x="20" y="255">هي والٽ چوري طور تي دستخط ڪيو ويو آهي.</text>
      <use x="20" y="275" href="#a" />
      <text xml:lang="sd" x="20" y="50">Sindhi</text>
      --&gt;
    </g>
    <g systemLanguage="si">
      <text xml:lang="si" x="20" y="255">මෙම මුදල් පසුම්බිය සොරකම් කළ පරිදි අත්සන් කර ඇත.</text>
      <use x="20" y="275" href="#a" />
      <text xml:lang="si" x="20" y="50">Singhalese</text>
      --&gt;
    </g>
    <g systemLanguage="sr">
      <text xml:lang="sr" x="20" y="255">Овај новчаник је потписан као украден.</text>
      <use x="20" y="275" href="#a" />
      <text xml:lang="sr" x="20" y="50">Serbian</text>
      --&gt;
    </g>
    <g systemLanguage="sk">
      <text xml:lang="sk" x="20" y="255">Táto peňaženka bola podpísaná ako ukradnutá.</text>
      <use x="20" y="275" href="#a" />
      <text xml:lang="sk" x="20" y="50">Slovak</text>
      --&gt;
    </g>
    <g systemLanguage="sl">
      <text xml:lang="sl" x="20" y="255">Ta denarnica je podpisana kot ukradena.</text>
      <use x="20" y="275" href="#a" />
      <text xml:lang="sl" x="20" y="50">Slovenian</text>
      --&gt;
    </g>
    <g systemLanguage="so">
      <text xml:lang="so" x="20" y="255">Boorsadan waxaa loo saxeexay sidii la xaday.</text>
      <use x="20" y="275" href="#a" />
      <text xml:lang="so" x="20" y="50">Somani</text>
      --&gt;
    </g>
    <g systemLanguage="es">
      <text xml:lang="es" x="20" y="255">Esta billetera ha sido firmada como robada.</text>
      <use x="20" y="275" href="#a" />
      <text xml:lang="es" x="20" y="50">Spanish</text>
      --&gt;
    </g>
    <g systemLanguage="es">
      <text xml:lang="es-MX" x="20" y="255">Esta billetera ha sido firmada como robada.</text>
      <use x="20" y="275" href="#a" />
      <text xml:lang="es" x="20" y="50">Spanish (MX)</text>
      --&gt;
    </g>
    <g systemLanguage="es">
      <text xml:lang="es-ES" x="20" y="255">Esta billetera ha sido firmada como robada.</text>
      <use x="20" y="275" href="#a" />
      <text xml:lang="es" x="20" y="50">Spanish (ES)</text>
      --&gt;
    </g>
    <g systemLanguage="sw">
      <text xml:lang="sw" x="20" y="255">Mkoba huu umesainiwa kama ulioibiwa.</text>
      <use x="20" y="275" href="#a" />
      <text xml:lang="sw" x="20" y="50">Swahili</text>
      --&gt;
    </g>
    <g systemLanguage="sv">
      <text xml:lang="sv" x="20" y="255">Denna plånbok har undertecknats som stulen.</text>
      <use x="20" y="275" href="#a" />
      <text xml:lang="sv" x="20" y="50">Swedish</text>
      --&gt;
    </g>
    <g systemLanguage="ta">
      <text xml:lang="ta" x="20" y="255">இந்த பணப்பையை திருடியதாக கையொப்பமிடப்பட்டுள்ளது.</text>
      <use x="20" y="275" href="#a" />
      <text xml:lang="ta" x="20" y="50">Tamil</text>
      --&gt;
    </g>
    <g systemLanguage="tt">
      <text xml:lang="tt" x="20" y="255">Бу капчык урланган кебек кул куелган.</text>
      <use x="20" y="275" href="#a" />
      <text xml:lang="tt" x="20" y="50">Tatar</text>
      --&gt;
    </g>
    <g systemLanguage="te">
      <text xml:lang="te" x="20" y="255">ఈ వాలెట్ దొంగిలించబడినట్లు సంతకం చేయబడింది.</text>
      <use x="20" y="275" href="#a" />
      <text xml:lang="te" x="20" y="50">Teluga</text>
      --&gt;
    </g>
    <g systemLanguage="th">
      <text xml:lang="th" x="20" y="255">กระเป๋าเงินนี้ได้รับการลงนามว่าถูกขโมย</text>
      <use x="20" y="275" href="#a" />
      <text xml:lang="th" x="20" y="50">Thai</text>
      --&gt;
    </g>
    <g systemLanguage="tr">
      <text xml:lang="tr" x="20" y="255">Bu cüzdan çalındı.</text>
      <use x="20" y="275" href="#a" />
      <text xml:lang="tr" x="20" y="50">Turkish</text>
      --&gt;
    </g>
    <g systemLanguage="tk">
      <text xml:lang="tk" x="20" y="255">Bu gapjyk ogurlanan hökmünde gol çekildi.</text>
      <use x="20" y="275" href="#a" />
      <text xml:lang="tk" x="20" y="50">Turkmen</text>
      --&gt;
    </g>
    <g systemLanguage="uk">
      <text xml:lang="uk" x="20" y="255">Цей гаманець був підписаний як викрадений.</text>
      <use x="20" y="275" href="#a" />
      <text xml:lang="uk" x="20" y="50">Ukrainian</text>
      --&gt;
    </g>
    <g systemLanguage="ur">
      <text xml:lang="ur" x="20" y="255">اس پرس کو چوری کے طور پر دستخط کیا گیا ہے۔</text>
      <use x="20" y="275" href="#a" />
      <text xml:lang="ur" x="20" y="50">Urdu</text>
      --&gt;
    </g>
    <g systemLanguage="vi">
      <text xml:lang="vi" x="20" y="255">Ví này đã được ký kết là bị đánh cắp.</text>
      <use x="20" y="275" href="#a" />
      <text xml:lang="vi" x="20" y="50">Vietnamese</text>
      --&gt;
    </g>
    <g systemLanguage="cy">
      <text xml:lang="cy" x="20" y="255">Mae&apos;r waled hon wedi&apos;i llofnodi fel un wedi&apos;i dwyn.</text>
      <use x="20" y="275" href="#a" />
      <text xml:lang="cy" x="20" y="50">Welsh</text>
      --&gt;
    </g>
    <g systemLanguage="xh">
      <text xml:lang="xh" x="20" y="255">Le wallet ityikitywe njengebiwe.</text>
      <use x="20" y="275" href="#a" />
      <text xml:lang="xh" x="20" y="50">Xhosa</text>
      --&gt;
    </g>
    <g systemLanguage="ji">
      <text xml:lang="ji" x="20" y="255">די בייַטל איז געחתמעט ווי סטאָלען.</text>
      <use x="20" y="275" href="#a" />
      <text xml:lang="ji" x="20" y="50">Yiddish</text>
      --&gt;
    </g>
    <g systemLanguage="zu">
      <text xml:lang="zu" x="20" y="255">Lesi sikhwama sesisayiniwe njengebiwe.</text>
      <use x="20" y="275" href="#a" />
      <text xml:lang="zu" x="20" y="50">Zulu</text>
      --&gt;
    </g>
  </switch>
</svg>
