<svg width="269" height="258" viewBox="0 0 269 258" fill="none" xmlns="http://www.w3.org/2000/svg">
<path d="M11.8 0.300001C20.4 2.9 29 5.6 37.6 8.2C43.5 10 49.4 11.7 55.2 13.8C57.2 14.5 59.3 15.7 60.8 17.2C84.6 40.9 108.3 64.6 132.1 88.4C134.8 91.1 134.8 91.1 137.5 88.4C144 81.9 150.6 75.3 157.1 68.8C175 51.1 192.8 33.3 210.7 15.7C212 14.4 214.1 13.6 215.9 13C228.8 8.9 241.8 4.9 254.8 0.9C255.9 0.6 257 0.4 258.7 0C257.5 4 256.4 7.5 255.3 11C251.9 22 248.5 32.9 244.9 43.9C244.3 45.7 243.2 47.5 241.8 48.9C217.8 73 193.8 97 169.7 121.1C167.1 123.7 167.1 123.7 169.7 126.3C181.1 137.7 192.6 149.2 204 160.6C206.4 163 207.1 162.9 208.4 159.9C212.7 150.3 215.6 140.4 215.6 129.8C215.6 127.5 216.4 126.5 218.8 126.5C222.9 126.6 227 126.5 231 126.5C232.4 126.5 233.6 126.8 233.4 128.5C232.8 134.3 232.5 140.1 231.4 145.8C228.6 159.4 223.2 172 214.7 183.1C213.1 185.2 213.3 186.5 215.1 188.3C232.4 205.4 249.6 222.7 266.8 239.9C269.5 242.6 269.4 242.8 266.6 245.3C263.1 248.6 259.7 252 256.4 255.6C254 258.2 253.8 258.3 251.3 255.9C234.1 238.7 216.9 221.5 199.7 204.3C197 201.6 197 201.6 193.8 203.9C180.8 213.1 166.4 218.8 150.5 220.9C147.4 221.3 144.2 221.3 141 221.5C138.9 221.7 137.9 220.9 138 218.7C138.1 214.8 138.1 210.9 138 207C138 204.9 138.8 204.1 141 204C151.5 203.9 161.4 201.3 170.9 196.9C171.8 196.5 172.6 195.9 173.7 195.3C172.9 194.3 172.3 193.5 171.6 192.8C160 181.2 148.4 169.6 136.8 157.9C135.1 156.2 134.2 156.4 132.6 158C121.1 169.6 109.5 181.1 98 192.7C95.6 195.1 95.7 195.3 98.7 196.8C108.4 201.5 118.8 203.7 129.5 204.5C131.6 204.6 132.5 205.5 132.4 207.6C132.3 211.4 132.3 215.3 132.4 219.1C132.5 221.5 131.3 222.2 129.2 222.1C109.5 221.1 91.5 215.3 75.5 203.5C72.5 201.3 72.5 201.3 70 203.8C52.9 220.9 35.8 238 18.7 255.1C15.9 257.9 16 257.8 13.1 255.1C12.6 254.6 12 254.1 11.4 253.6C9.9 252.1 1.7 245.3 0 242.6C0.1 242.5 11.7 230.9 11.8 230.8C26.4 216.3 40.9 201.7 55.5 187.2C56.8 186 56.7 184.9 55.6 183.5C49 175.2 44.5 165.7 41.3 155.7C38.6 147.4 37.2 138.9 36.9 130.2C36.8 127.8 37.7 127 40.1 127C43.8 127.1 47.6 127.1 51.3 127C53.5 126.9 54.4 127.6 54.5 129.9C54.9 140.2 57.3 150 61.6 159.3C63 162.3 63.3 162.4 65.7 160C77 148.8 88.2 137.5 99.5 126.2C102.2 123.5 102.2 123.5 99.6 120.8C75.6 96.8 51.6 72.9 27.7 48.9C26.7 47.9 25.6 46.6 25.2 45.3C22.3 36.5 19.7 27.7 16.9 18.9C15.1 13.3 13.3 7.6 11.6 2C11.8 1.3 11.8 0.800001 11.8 0.300001ZM28.6 23.6C28.4 23.7 28.2 23.9 28 24C29.9 29.9 31.7 35.9 33.7 41.8C34.1 43 35.2 44 36.1 44.9C50.5 59.1 64.9 73.3 79.2 87.5C112.3 120.5 145.3 153.6 178.4 186.6C182.6 190.8 182.7 190.8 187.1 186.7C189.6 184.3 189.6 184.3 187.2 181.9C135 129.8 82.8 77.6 30.6 25.4C30 24.7 29.3 24.2 28.6 23.6ZM35.4 16.8C35.2 17.1 34.9 17.4 34.7 17.7C35.6 18.3 36.6 18.8 37.3 19.6C88.9 71.1 140.4 122.6 191.9 174.2C196.9 179.2 195.7 178.6 200.2 173.5C201.7 171.8 201.7 170.4 199.9 168.7C151.7 120.5 103.5 72.3 55.3 24.1C54.6 23.4 53.8 22.6 52.9 22.3C47.1 20.4 41.3 18.6 35.4 16.8ZM235 17.1C234.8 16.9 234.7 16.7 234.5 16.4C229.4 18 224.2 19.6 219.1 21.3C217.6 21.8 216.1 22.7 214.9 23.8C191.7 46.8 168.6 69.8 145.4 92.8C140.9 97.3 140.9 97.3 145.5 101.9C147.8 104.2 148 104.2 150.3 101.9C177.9 74.3 205.5 46.7 233.2 19C233.9 18.4 234.5 17.7 235 17.1ZM242 24C241.8 23.8 241.6 23.7 241.5 23.5C240.7 24.2 240 24.9 239.2 25.6C222 42.8 204.8 60.1 187.6 77.2C177.2 87.5 166.8 97.8 156.3 108.1C154.6 109.7 154.3 110.9 156.2 112.5C157.2 113.3 158.1 114.2 158.9 115.1C160.5 117 161.7 116.7 163.4 115.1C187.2 91.3 211 67.5 234.8 43.7C235.6 42.9 236.4 41.9 236.8 40.9C238.5 35.2 240.2 29.6 242 24ZM128.4 149.6C127.8 148.8 127.3 148 126.7 147.4C121.9 142.7 122.7 141.7 117.2 147.3C106.5 158 95.8 168.7 85.1 179.4C80 184.5 80.1 184.4 86 188.7C87.7 189.9 88.8 189.7 90.1 188.3C102.4 176 114.7 163.7 127 151.4C127.4 150.9 127.8 150.3 128.4 149.6ZM115.2 136.5C114.8 135.9 114.5 135.4 114.1 135C113.1 134 112.1 133 111.1 132C108.8 129.7 108.7 129.7 106.3 132.1C95 143.4 83.8 154.6 72.5 165.9C67.8 170.6 67.8 171.5 72.6 176.2C73.9 177.5 74.9 177.4 76.2 176.2C88.7 163.7 101.2 151.2 113.7 138.7C114.3 138 114.7 137.2 115.2 136.5Z" fill="white"/>
</svg>
