<svg width="184" height="184" viewBox="0 0 184 184" fill="none" xmlns="http://www.w3.org/2000/svg">
<path fill-rule="evenodd" clip-rule="evenodd" d="M92 178.356C139.693 178.356 178.356 139.693 178.356 92C178.356 44.307 139.693 5.64417 92 5.64417C44.307 5.64417 5.64417 44.307 5.64417 92C5.64417 139.693 44.307 178.356 92 178.356ZM92 184C142.81 184 184 142.81 184 92C184 41.1898 142.81 0 92 0C41.1898 0 0 41.1898 0 92C0 142.81 41.1898 184 92 184Z" fill="#45D721"/>
<path fill-rule="evenodd" clip-rule="evenodd" d="M80.1481 139.975L41.7678 101.595L45.7588 97.604L84.1392 135.984L80.1481 139.975Z" fill="#45D721"/>
<path fill-rule="evenodd" clip-rule="evenodd" d="M143.363 53.055L82.4062 141.104L77.7656 137.891L138.723 49.8423L143.363 53.055Z" fill="#45D721"/>
</svg>
