<svg width="163" height="55" viewBox="0 0 163 55" fill="none" xmlns="http://www.w3.org/2000/svg">
<path d="M48.7078 31.0124L52 29.2273L48.7078 27.4701L51.6905 25.2108L48.145 23.9556L50.7619 21.2779L47.0476 20.6085L49.1861 17.5124L45.4156 17.4567L47.0476 14.0817L43.3052 14.5837L44.4026 11.0135L40.7727 12.0734L41.3074 8.36368L37.9026 10.0093L37.8182 6.27174L34.7229 8.39157L34.0476 4.70976L31.3182 7.30376L30.0801 3.76141L27.8009 6.74591L26 3.45459L24.2273 6.74591L21.9481 3.76141L20.6818 7.30376L17.9805 4.70976L17.3052 8.39157L14.1818 6.27174L14.1255 10.0093L10.7208 8.36368L11.2273 12.0734L7.62554 11.0135L8.69481 14.5837L4.95238 14.0817L6.61255 17.4567L2.84199 17.5124L4.98052 20.6085L1.26623 21.2779L3.88312 23.9556L0.309524 25.2108L3.32035 27.4701L0 29.2273L3.32035 31.0124L0.309524 33.2717L3.88312 34.499L1.26623 37.2046L4.98052 37.874L2.84199 40.9422L6.61255 41.0259L4.95238 44.4009L8.69481 43.8709L7.62554 47.4691L11.2273 46.3812L10.7208 50.091L14.1255 48.4732L14.1818 52.2108L17.3052 50.091L17.9805 53.7449L20.6818 51.1788L21.9481 54.6932L24.2273 51.7366L26 55L27.8009 51.7366L30.0801 54.6932L31.3182 51.1788L34.0476 53.7449L34.7229 50.091L37.8182 52.2108L37.9026 48.4732L41.3074 50.091L40.7727 46.3812L44.4026 47.4691L43.3052 43.8709L47.0476 44.4009L45.4156 41.0259L49.1861 40.9422L47.0476 37.874L50.7338 37.2046L48.145 34.499L51.6905 33.2717L48.7078 31.0124Z" fill="black"/>
<path d="M25.9999 50.8998C38.0748 50.8998 47.8635 41.1967 47.8635 29.2273C47.8635 17.2579 38.0748 7.55481 25.9999 7.55481C13.9249 7.55481 4.13623 17.2579 4.13623 29.2273C4.13623 41.1967 13.9249 50.8998 25.9999 50.8998Z" fill="#E81858"/>
<path d="M25.9435 45.8513C30.2768 45.8513 34.0755 44.5962 37.621 42.0858C42.7141 38.4877 42.2076 33.0208 37.621 35.029C36.0734 35.7263 32.6686 38.7945 25.9435 38.7945H25.9998C19.2747 38.7945 15.8699 35.6984 14.3223 35.029C9.73571 33.0208 9.22922 38.4877 14.3223 42.0858C17.8677 44.5962 21.6946 45.8513 25.9998 45.8513" fill="#AA174C"/>
<path d="M26 46.3534C25.9719 46.3534 25.9437 46.3534 25.9437 46.3534C21.5823 46.3534 17.6991 45.0703 14.013 42.4763C11.368 40.6075 9.28572 37.2883 10.5238 35.1685C11.1991 33.997 12.6905 33.7738 14.5195 34.5548C14.8571 34.6943 15.2511 34.9453 15.7576 35.2521C17.6147 36.3957 20.7662 38.2924 25.9719 38.2924C31.1775 38.2924 34.329 36.3957 36.1862 35.2521C36.6926 34.9453 37.0866 34.7222 37.4242 34.5548C39.2533 33.7459 40.7446 33.9691 41.4199 35.1685C42.658 37.2883 40.5476 40.6354 37.9307 42.4763C34.2727 45.0703 30.3615 46.3534 26 46.3534ZM12.5498 35.0848C12.0152 35.0848 11.6212 35.28 11.3961 35.6705C10.7489 36.7862 11.5087 39.4918 14.6039 41.6674C18.0931 44.1499 21.8074 45.3493 25.9719 45.3493C30.1364 45.3493 33.8507 44.1499 37.3398 41.6674C40.4351 39.4918 41.1948 36.7862 40.5476 35.6705C40.1537 34.9732 39.1688 34.9174 37.8463 35.4753C37.5649 35.5869 37.171 35.8379 36.7208 36.1168C34.7511 37.3162 31.487 39.2966 26 39.2966H25.9437C20.4567 39.2687 17.1926 37.2883 15.2229 36.1168C14.7727 35.8379 14.3788 35.6147 14.0974 35.4753C13.5065 35.2243 13 35.0848 12.5498 35.0848Z" fill="black"/>
<path d="M25.9998 51.6529C13.5345 51.6529 3.37646 41.5837 3.37646 29.2273C3.37646 16.8708 13.5345 6.80164 25.9998 6.80164C38.4652 6.80164 48.6232 16.8708 48.6232 29.2273C48.6232 41.5837 38.4652 51.6529 25.9998 51.6529ZM25.9998 8.33573C14.3786 8.33573 4.89595 17.7076 4.89595 29.2551C4.89595 40.8027 14.3505 50.1746 25.9998 50.1746C37.6492 50.1746 47.1037 40.8027 47.1037 29.2551C47.1037 17.7076 37.6492 8.33573 25.9998 8.33573Z" fill="black"/>
<path d="M17.474 31.5146C20.7841 31.5146 23.4675 28.8546 23.4675 25.5734C23.4675 22.2923 20.7841 19.6323 17.474 19.6323C14.1639 19.6323 11.4805 22.2923 11.4805 25.5734C11.4805 28.8546 14.1639 31.5146 17.474 31.5146Z" fill="white"/>
<path d="M17.4741 32.0166C13.9005 32.0166 10.9741 29.1437 10.9741 25.5734C11.0023 22.0311 13.9005 19.1302 17.4741 19.1302C21.0477 19.1302 23.9741 22.0032 23.9741 25.5734C23.9741 29.1158 21.0477 32.0166 17.4741 32.0166ZM17.4741 20.1623C14.4633 20.1623 12.0152 22.5889 12.0152 25.5734C12.0152 28.5579 14.4633 30.9846 17.4741 30.9846C20.4849 30.9846 22.933 28.5579 22.933 25.5734C22.933 22.5889 20.5131 20.1623 17.4741 20.1623Z" fill="black"/>
<path d="M34.2728 31.5146C37.5829 31.5146 40.2663 28.8546 40.2663 25.5734C40.2663 22.2923 37.5829 19.6323 34.2728 19.6323C30.9627 19.6323 28.2793 22.2923 28.2793 25.5734C28.2793 28.8546 30.9627 31.5146 34.2728 31.5146Z" fill="white"/>
<path d="M34.273 32.0166C30.6994 32.0166 27.7729 29.1437 27.7729 25.5734C27.7729 22.0311 30.6712 19.1302 34.273 19.1302C37.8747 19.1302 40.7729 22.0032 40.7729 25.5734C40.7729 29.1158 37.8465 32.0166 34.273 32.0166ZM34.273 20.1623C31.2621 20.1623 28.8141 22.5889 28.8141 25.5734C28.8141 28.5579 31.2621 30.9846 34.273 30.9846C37.2838 30.9846 39.7318 28.5579 39.7318 25.5734C39.7318 22.5889 37.2838 20.1623 34.273 20.1623Z" fill="black"/>
<path d="M17.4742 29.9805C19.4323 29.9805 21.0196 28.407 21.0196 26.466C21.0196 24.525 19.4323 22.9515 17.4742 22.9515C15.5161 22.9515 13.9287 24.525 13.9287 26.466C13.9287 28.407 15.5161 29.9805 17.4742 29.9805Z" fill="black"/>
<path d="M34.273 29.9805C36.2311 29.9805 37.8184 28.407 37.8184 26.466C37.8184 24.525 36.2311 22.9515 34.273 22.9515C32.3149 22.9515 30.7275 24.525 30.7275 26.466C30.7275 28.407 32.3149 29.9805 34.273 29.9805Z" fill="black"/>
<path d="M25.9999 38.7945L24.2272 42.6995L22.9328 39.0455L20.7099 42.0579L19.5843 38.0135L14.5757 45.3493L15.5887 35.7263C15.5605 35.7263 20.2878 38.8224 25.9999 38.7945Z" fill="white"/>
<path d="M14.3789 45.6282L15.1386 34.8617L15.8421 35.308C15.8702 35.3359 17.3616 36.2842 19.6127 37.0931L19.8659 37.1768C20.8226 37.5115 21.8919 37.8183 23.0456 38.0136L23.0737 37.9578L23.1018 38.0136C24.0023 38.1809 24.9871 38.2646 25.972 38.2646H26.0001H26.788L24.1711 44.0383L22.7923 40.0776L20.5131 43.1737L19.4157 39.185L14.3789 45.6282ZM15.9828 36.5631L15.4763 42.9784L19.0218 37.9578C17.6993 37.4557 16.63 36.9257 15.9828 36.5631ZM23.4958 39.1293L24.2837 41.3607L25.2122 39.2966C24.6495 39.2687 24.0586 39.2129 23.4958 39.1293ZM20.2036 38.3762L20.907 40.9423L22.3702 38.934C21.6105 38.7945 20.8789 38.5993 20.2036 38.3762Z" fill="black"/>
<path d="M26.0001 45.8514L24.2274 42.6996L22.3421 45.6004L20.6538 42.0859L18.5715 44.401C18.5434 44.401 21.0196 45.8514 26.0001 45.8514Z" fill="white"/>
<path d="M21.9762 46.0188C19.5844 45.5725 18.3744 44.8752 18.29 44.8473L17.7554 44.5405L20.7662 41.1934L22.3982 44.5962L24.2554 41.7512L26.8723 46.3814H26C24.7056 46.3814 23.58 46.2977 22.5952 46.1303L21.9762 46.0188ZM23.2142 45.182C23.8052 45.2657 24.4242 45.3215 25.1277 45.3215L24.1991 43.6758L23.2142 45.182ZM19.3874 44.2336C19.8095 44.401 20.4848 44.652 21.4134 44.8752L20.5129 42.9785L19.3874 44.2336Z" fill="black"/>
<path d="M25.8872 38.7946L27.6599 42.6995L28.9543 39.0456L31.1773 42.058L32.3028 38.0136L37.3396 45.3214L36.3266 35.6985C36.3266 35.7264 31.5993 38.8225 25.8872 38.7946Z" fill="white"/>
<path d="M37.3114 45.6282L32.4997 39.2408L31.4023 43.2295L29.1231 40.1334L27.7443 44.0941L25.1274 38.3204H25.9153C26.9283 38.3204 27.885 38.2367 28.8136 38.0693H28.8699C30.0235 37.8741 31.0928 37.5673 32.0495 37.2326L32.3028 37.1489C34.582 36.3121 36.0452 35.3638 36.0733 35.3638L36.7768 34.9175L37.3114 45.6282ZM32.8655 37.9857L36.4391 43.0063L35.9045 36.591C35.2573 36.9257 34.188 37.4557 32.8655 37.9857ZM26.6469 39.2966L27.5755 41.3607L28.3634 39.1293C27.8287 39.2129 27.2378 39.2687 26.6469 39.2966ZM29.4889 38.934L30.9521 40.9423L31.6556 38.3762C31.0084 38.5993 30.2768 38.7945 29.4889 38.934Z" fill="black"/>
<path d="M25.8872 45.8514L27.6599 42.6996L29.5452 45.6004L31.2335 42.0859L33.3158 44.401C33.3158 44.401 30.8677 45.8514 25.8872 45.8514Z" fill="white"/>
<path d="M29.2922 46.1303C28.3355 46.2698 27.1818 46.3814 25.8874 46.3814H25.0151L27.632 41.7512L29.4892 44.5962L31.1212 41.1934L34.132 44.5405L33.5974 44.8473C33.513 44.9031 32.303 45.6004 29.9112 46.0188L29.2922 46.1303ZM27.6883 43.7037L26.7597 45.3493C27.4632 45.3215 28.0822 45.2657 28.6731 45.2099L27.6883 43.7037ZM31.3744 42.9785L30.474 44.8752C31.4026 44.652 32.0779 44.4289 32.5 44.2336L31.3744 42.9785Z" fill="black"/>
<path d="M21.6948 34.0249C21.6948 34.0249 22.9611 34.527 24.2273 34.527L21.6948 34.0249Z" fill="black"/>
<path d="M24.2273 35.2801C22.8204 35.2801 21.4697 34.7502 21.4134 34.7223C21.0195 34.5549 20.8225 34.1365 20.9914 33.746C21.1602 33.3555 21.5823 33.1603 21.9762 33.3276C22.0044 33.3276 23.1299 33.7739 24.2273 33.7739C24.6494 33.7739 24.987 34.1086 24.987 34.527C24.987 34.9454 24.6494 35.2801 24.2273 35.2801Z" fill="black"/>
<path d="M29.8264 34.0249C29.8264 34.0249 28.5602 34.527 27.2939 34.527L29.8264 34.0249Z" fill="black"/>
<path d="M27.2661 35.28C26.844 35.28 26.5063 34.9453 26.5063 34.5269C26.5063 34.1085 26.844 33.7738 27.2661 33.7738C28.3635 33.7738 29.5172 33.3275 29.5172 33.3275C29.9111 33.188 30.3613 33.3554 30.502 33.7459C30.6709 34.1364 30.4739 34.5827 30.0799 34.7221C30.0518 34.75 28.673 35.28 27.2661 35.28Z" fill="black"/>
<path d="M8.21634 32.1282C8.10379 32.1282 7.99123 32.1003 7.90682 32.0166C7.68171 31.8493 7.65357 31.5146 7.8224 31.3193C9.82024 28.8927 13.2531 29.6179 14.7726 30.3431C15.0259 30.4546 15.1384 30.7615 14.9977 31.0125C14.8852 31.2635 14.5756 31.3751 14.3224 31.2356C14.2943 31.2356 13.3376 30.7894 12.1557 30.6499C10.6363 30.4825 9.4263 30.9288 8.61028 31.9329C8.49773 32.0724 8.35703 32.1282 8.21634 32.1282Z" fill="black"/>
<path d="M43.6709 32.0166C43.5302 32.0166 43.3896 31.9608 43.277 31.8214C41.2792 29.3947 37.593 31.0962 37.5367 31.1241C37.2835 31.2356 36.974 31.1519 36.8614 30.9009C36.7489 30.6499 36.8333 30.3431 37.0865 30.2315C38.606 29.5063 42.0389 28.7811 44.0367 31.2077C44.2056 31.4309 44.1774 31.7377 43.9523 31.9051C43.896 31.9608 43.7835 32.0166 43.6709 32.0166Z" fill="black"/>
<path d="M29.7707 11.2645C29.6019 10.5114 29.7988 9.70248 30.3335 9.08885L36.6928 1.7531C37.2556 1.13947 38.2967 1.64153 38.1278 2.45042L38.2685 12.3244C38.2967 13.5238 37.3681 14.5558 36.1863 14.6952C33.5131 15.0021 30.446 14.3605 29.7707 11.2645Z" fill="#E81858"/>
<path d="M34.9764 15.281C31.9374 15.281 29.827 13.8585 29.2643 11.3761C29.0673 10.4556 29.3206 9.47938 29.9396 8.78206L36.2989 1.44632C36.721 1.00004 37.3682 0.860578 37.9028 1.1395C38.4374 1.39054 38.7188 1.94839 38.6344 2.53413L38.7751 12.3523C38.8032 13.8306 37.7058 15.0579 36.2426 15.2252C35.7643 15.281 35.3703 15.281 34.9764 15.281ZM37.2838 2.00417C37.1993 2.00417 37.1431 2.03207 37.0586 2.11574L30.7275 9.42359C30.3054 9.89777 30.1647 10.5393 30.2773 11.1529C30.5305 12.2407 31.5716 14.7232 36.1019 14.2211C37.0586 14.1095 37.7621 13.3285 37.734 12.3802L37.5933 2.45045V2.39467C37.6214 2.17153 37.4807 2.08785 37.4244 2.05996C37.3963 2.03207 37.34 2.00417 37.2838 2.00417Z" fill="black"/>
<path d="M22.1449 11.2645C22.3138 10.5114 22.1168 9.70254 21.5822 9.08891L15.2229 1.78106C14.6601 1.16742 13.619 1.66949 13.7878 2.47837L13.6471 12.3523C13.619 13.5517 14.5475 14.5837 15.7294 14.7232C18.4025 15.0021 21.4415 14.3606 22.1449 11.2645Z" fill="#E81858"/>
<path d="M16.9392 15.2811C16.5453 15.2811 16.1514 15.2532 15.7293 15.1974C14.2661 15.0301 13.1687 13.8028 13.1968 12.3245L13.3375 2.5063C13.2531 1.92056 13.5345 1.3906 14.0691 1.11167C14.6037 0.832746 15.2509 0.972208 15.673 1.41849L22.0323 8.75423C22.6514 9.47944 22.9046 10.4278 22.7076 11.3482C22.0886 13.8865 19.9782 15.2811 16.9392 15.2811ZM14.6319 2.00423C14.5756 2.00423 14.5193 2.03213 14.4631 2.03213C14.4068 2.06002 14.2379 2.17159 14.2942 2.36684V2.42262L14.1535 12.3524C14.1535 13.3007 14.857 14.1096 15.7856 14.1933C20.3159 14.6953 21.357 12.2129 21.6102 11.1251C21.7509 10.5115 21.5821 9.86994 21.16 9.39576L14.857 2.1158C14.7726 2.03213 14.6882 2.00423 14.6319 2.00423Z" fill="black"/>
<path d="M60.7362 35.6823C60.231 35.6823 60 35.4514 60 34.9462V21.6662C60 21.161 60.231 20.9301 60.7362 20.9301H67.0008C70.7394 20.9445 71.8365 22.5612 71.8365 24.9285V27.5556C71.8365 29.9373 70.725 31.554 67.0008 31.554H64.648V34.9606C64.648 35.4658 64.417 35.6968 63.9118 35.6968H60.7362V35.6823ZM64.6047 27.8587H66.4523C67.2462 27.8587 67.4194 27.3824 67.4194 26.8483V25.7657C67.4194 25.2316 67.2607 24.7552 66.4523 24.7552H64.6047V27.8587Z" fill="black"/>
<path d="M80.1221 36.0002C74.9977 36.0002 73.7563 34.3257 73.7563 31.8141V24.8277C73.7563 22.3305 75.0122 20.6272 80.1221 20.6272C85.2319 20.6272 86.4733 22.3305 86.4733 24.8277V31.8141C86.4733 34.3113 85.2319 36.0002 80.1221 36.0002ZM80.1221 32.045C81.6233 32.045 81.8398 31.6409 81.8398 31.0779V25.5639C81.8398 25.0298 81.6088 24.6256 80.1221 24.6256C78.6497 24.6256 78.4043 25.0298 78.4043 25.5639V31.0779C78.3899 31.6264 78.6353 32.045 80.1221 32.045Z" fill="black"/>
<path d="M89.8075 35.6823C89.3022 35.6823 89.0713 35.4514 89.0713 34.9462V21.6662C89.0713 21.161 89.3022 20.9301 89.8075 20.9301H92.9831C93.4883 20.9301 93.7193 21.161 93.7193 21.6662V26.3864H94.542L96.6495 21.6085C96.8516 21.1177 97.1403 20.9301 97.6744 20.9301H100.836C101.312 20.9301 101.471 21.1754 101.283 21.6085L99.19 26.3864C100.72 26.473 101.716 27.5411 101.716 29.1723V34.9462C101.716 35.4514 101.485 35.6823 100.98 35.6823H97.8187C97.3135 35.6823 97.0826 35.4514 97.0826 34.9462V30.9477C97.0826 30.5003 96.8516 30.2549 96.433 30.2549H93.7337V34.9462C93.7337 35.4514 93.5027 35.6823 92.9975 35.6823H89.8075Z" fill="black"/>
<path d="M105.094 35.6825C104.589 35.6825 104.358 35.4515 104.358 34.9463V21.6664C104.358 21.1611 104.589 20.9302 105.094 20.9302H114.607C115.112 20.9302 115.343 21.1611 115.343 21.6664V24.077C115.343 24.5822 115.112 24.8131 114.607 24.8131H108.934V26.3865H112.932C113.437 26.3865 113.668 26.6175 113.668 27.1227V29.3167C113.668 29.822 113.437 30.0529 112.932 30.0529H108.934V31.814H114.592C115.097 31.814 115.328 32.0449 115.328 32.5501V34.9463C115.328 35.4515 115.097 35.6825 114.592 35.6825H105.094ZM106.653 20.2662C106.177 20.3239 105.96 20.0641 105.96 19.5878V17.6246C105.96 17.1194 106.191 16.9462 106.696 16.8885L113.842 16.008C114.318 15.9502 114.534 16.21 114.534 16.6864V18.6495C114.534 19.1547 114.303 19.3279 113.798 19.3857L106.653 20.2662Z" fill="black"/>
<path d="M118.49 35.6823C117.984 35.6823 117.753 35.4514 117.753 34.9462V21.6662C117.753 21.161 117.984 20.9301 118.49 20.9301H121.781C122.214 20.9301 122.474 21.0888 122.719 21.5507L124.567 24.8852C124.711 25.1306 124.769 25.2316 124.942 25.2316H125.13C125.288 25.2316 125.361 25.1306 125.505 24.8852L127.324 21.5507C127.569 21.1033 127.829 20.9301 128.262 20.9301H131.582C132.087 20.9301 132.318 21.161 132.318 21.6662V34.9462C132.318 35.4514 132.087 35.6823 131.582 35.6823H128.421C127.887 35.6823 127.684 35.4514 127.684 34.9462V27.7288L126.472 29.9662C126.227 30.4425 125.923 30.6157 125.389 30.6157H124.567C124.033 30.6157 123.729 30.4281 123.484 29.9662L122.271 27.7288V34.9462C122.271 35.4514 122.041 35.6823 121.535 35.6823H118.49Z" fill="black"/>
<path d="M141.282 36.0002C136.157 36.0002 134.916 34.3257 134.916 31.8141V24.8277C134.916 22.3305 136.172 20.6272 141.282 20.6272C146.392 20.6272 147.633 22.3305 147.633 24.8277V31.8141C147.633 34.3113 146.406 36.0002 141.282 36.0002ZM141.282 32.045C142.783 32.045 142.999 31.6409 142.999 31.0779V25.5639C142.999 25.0298 142.768 24.6256 141.282 24.6256C139.809 24.6256 139.564 25.0298 139.564 25.5639V31.0779C139.564 31.6264 139.809 32.045 141.282 32.045Z" fill="black"/>
<path d="M150.982 35.6823C150.477 35.6823 150.246 35.4514 150.246 34.9462V21.6662C150.246 21.161 150.477 20.9301 150.982 20.9301H154.157C154.663 20.9301 154.894 21.161 154.894 21.6662V31.8138H157.694V28.4938C157.694 27.9886 157.925 27.7577 158.43 27.7577H161.404C161.909 27.7577 162.14 27.9886 162.14 28.4938V34.9462C162.14 35.4514 161.909 35.6823 161.404 35.6823H150.982Z" fill="black"/>
</svg>
