<svg width="32" height="32" viewBox="0 0 32 32" fill="none" xmlns="http://www.w3.org/2000/svg">
<path fill-rule="evenodd" clip-rule="evenodd" d="M16 31.0184C24.2944 31.0184 31.0184 24.2944 31.0184 16C31.0184 7.70556 24.2944 0.981595 16 0.981595C7.70556 0.981595 0.981595 7.70556 0.981595 16C0.981595 24.2944 7.70556 31.0184 16 31.0184ZM16 32C24.8366 32 32 24.8366 32 16C32 7.16344 24.8366 0 16 0C7.16344 0 0 7.16344 0 16C0 24.8366 7.16344 32 16 32Z" fill="white"/>
<path fill-rule="evenodd" clip-rule="evenodd" d="M13.9388 24.3435L7.26392 17.6687L7.95801 16.9746L14.6329 23.6495L13.9388 24.3435Z" fill="white"/>
<path fill-rule="evenodd" clip-rule="evenodd" d="M24.9327 9.22693L14.3315 24.5398L13.5244 23.9811L24.1256 8.66819L24.9327 9.22693Z" fill="white"/>
</svg>
